<?xml version="1.0" encoding="utf-8"?>
<!-- Generator: Adobe Illustrator 19.1.0, SVG Export Plug-In . SVG Version: 6.00 Build 0)  -->
<svg version="1.1" id="Layer_1" xmlns="http://www.w3.org/2000/svg" xmlns:xlink="http://www.w3.org/1999/xlink" x="0px" y="0px"
	 viewBox="0 0 300 300" style="enable-background:new 0 0 300 300;" xml:space="preserve">
<style type="text/css">
	.st0{fill:#DC483A;}
</style>
<path class="st0" d="M229.8,92.6H70.2c-4.8,0-8.7,3.9-8.7,8.7v136.6c0,23.2,18.9,42.1,42.1,42.1h92.9c23.2,0,42.1-18.9,42.1-42.1
	V101.3C238.5,96.5,234.6,92.6,229.8,92.6L229.8,92.6z M129,227.3c0,5.9-4.8,10.7-10.7,10.7c-5.9,0-10.7-4.8-10.7-10.7v-82.1
	c0-5.9,4.8-10.7,10.7-10.7c5.9,0,10.7,4.8,10.7,10.7V227.3z M192.5,227.3c0,5.9-4.8,10.7-10.7,10.7s-10.7-4.8-10.7-10.7v-82.1
	c0-5.9,4.8-10.7,10.7-10.7s10.7,4.8,10.7,10.7V227.3z"/>
<path class="st0" d="M221,33.6h-38.1v-3.3c0-5.7-4.6-10.3-10.3-10.3h-45.3c-5.7,0-10.3,4.6-10.3,10.3v3.3H79
	c-14.6,0-26.5,11.9-26.5,26.5v17c0,3,2.5,5.5,5.5,5.5h184c3,0,5.5-2.5,5.5-5.5v-17C247.5,45.5,235.6,33.6,221,33.6L221,33.6z"/>
</svg>
