<?xml version="1.0" encoding="utf-8"?>
<!-- Generator: Adobe Illustrator 19.1.0, SVG Export Plug-In . SVG Version: 6.00 Build 0)  -->
<svg version="1.1" id="Layer_1" xmlns="http://www.w3.org/2000/svg" xmlns:xlink="http://www.w3.org/1999/xlink" x="0px" y="0px"
	 viewBox="0 0 300 300" style="enable-background:new 0 0 300 300;" xml:space="preserve">
<path d="M150.1,93.5c-31,0-56.1,25.2-56.1,56.1c0,31,25.2,56.1,56.1,56.1c31,0,56.1-25.2,56.1-56.1
	C206.2,118.6,181.1,93.5,150.1,93.5L150.1,93.5z M150.1,191.1c-22.9,0-41.5-18.6-41.5-41.5s18.6-41.5,41.5-41.5s41.5,18.6,41.5,41.5
	C191.5,172.5,173,191.1,150.1,191.1L150.1,191.1z"/>
<path d="M266.8,122.3l-18.3-3.1c-1.9-6.1-4.3-12.1-7.3-17.7l10.8-15c4.6-6.4,3.9-15.2-1.7-20.7L234,49.6c-3-3-7.1-4.7-11.4-4.7
	c-3.4,0-6.6,1-9.3,3l-15.1,10.8c-5.9-3.1-12-5.7-18.4-7.6l-3-18c-1.3-7.8-8-13.4-15.9-13.4H138c-7.9,0-14.6,5.7-15.9,13.4L119,51.6
	c-6.1,1.9-12,4.4-17.7,7.4L86.5,48.1c-2.7-2-6-3-9.3-3c-4.3,0-8.4,1.7-11.4,4.7L49.6,66.1c-5.5,5.5-6.3,14.3-1.7,20.7L58.7,102
	c-3,5.7-5.4,11.6-7.2,17.8l-18,3c-7.8,1.3-13.4,8-13.4,15.9v22.9c0,7.9,5.7,14.6,13.4,15.9l18.5,3.2c1.9,6.1,4.4,12,7.4,17.7
	l-10.7,14.9c-4.6,6.4-3.9,15.2,1.7,20.7l16.2,16.2c3,3,7.1,4.7,11.4,4.7c3.4,0,6.6-1,9.3-3l15.3-10.9c5.5,2.9,11.2,5.2,17.2,7.1
	l3,18.3c1.3,7.8,8,13.4,15.9,13.4h22.9c7.9,0,14.6-5.7,15.9-13.4l3.1-18.3c6.1-1.9,12.1-4.3,17.7-7.3l15.1,10.8c2.7,2,6,3,9.3,3
	c4.3,0,8.3-1.7,11.4-4.7l16.2-16.2c5.5-5.5,6.3-14.3,1.7-20.7l-10.8-15.1c3-5.7,5.5-11.6,7.3-17.7l18.3-3c7.8-1.3,13.4-8,13.4-15.9
	v-22.9C280.2,130.3,274.6,123.6,266.8,122.3L266.8,122.3z M265.5,161.1c0,0.7-0.5,1.3-1.2,1.4l-22.8,3.8c-2.9,0.5-5.2,2.6-5.9,5.4
	c-2.1,8-5.2,15.6-9.5,22.8c-1.5,2.5-1.4,5.6,0.3,8l13.4,18.9c0.4,0.5,0.3,1.4-0.2,1.8l-16.2,16.2c-0.4,0.4-0.8,0.4-1,0.4
	c-0.3,0-0.6-0.1-0.8-0.3l-18.9-13.4c-2.3-1.7-5.5-1.8-8-0.3c-7.1,4.2-14.8,7.4-22.8,9.5c-2.8,0.7-4.9,3-5.4,5.9l-3.9,22.8
	c-0.1,0.7-0.7,1.2-1.4,1.2h-22.9c-0.7,0-1.3-0.5-1.4-1.2l-3.8-22.8c-0.5-2.9-2.6-5.2-5.4-5.9c-7.8-2-15.3-5.1-22.3-9.1
	c-1.1-0.6-2.4-1-3.7-1c-1.5,0-3,0.4-4.2,1.4l-19,13.5c-0.3,0.2-0.5,0.3-0.8,0.3c-0.2,0-0.7-0.1-1-0.4l-16.2-16.2
	c-0.5-0.5-0.5-1.2-0.2-1.8L74,203.1c1.7-2.4,1.8-5.5,0.3-8c-4.2-7.1-7.5-14.7-9.6-22.7c-0.8-2.8-3-4.9-5.9-5.4l-23-3.9
	c-0.7-0.1-1.2-0.7-1.2-1.4v-22.9c0-0.7,0.5-1.3,1.2-1.4l22.7-3.8c2.9-0.5,5.2-2.6,5.9-5.4c2-8,5.1-15.7,9.3-22.8
	c1.5-2.5,1.3-5.6-0.4-7.9l-13.5-19c-0.4-0.5-0.3-1.4,0.2-1.8l16.2-16.2c0.4-0.4,0.8-0.4,1-0.4c0.3,0,0.6,0.1,0.8,0.3l18.7,13.4
	c2.4,1.7,5.5,1.8,8,0.3c7.1-4.2,14.7-7.5,22.7-9.6c2.8-0.8,4.9-3,5.4-5.9l3.9-23c0.1-0.7,0.7-1.2,1.4-1.2H161c0.7,0,1.3,0.5,1.4,1.2
	l3.8,22.7c0.5,2.9,2.6,5.2,5.4,5.9c8.2,2.1,16,5.3,23.3,9.6c2.5,1.5,5.6,1.4,8-0.3L221.6,60c0.3-0.2,0.5-0.3,0.8-0.3
	c0.2,0,0.7,0.1,1,0.4l16.2,16.2c0.5,0.5,0.5,1.2,0.2,1.8L226.4,97c-1.7,2.3-1.8,5.5-0.3,8c4.2,7.1,7.4,14.8,9.5,22.8
	c0.7,2.8,3,4.9,5.9,5.4l22.8,3.9c0.7,0.1,1.2,0.7,1.2,1.4L265.5,161.1L265.5,161.1z"/>
</svg>
