<?xml version="1.0" encoding="utf-8"?>
<!-- Generator: Adobe Illustrator 19.1.0, SVG Export Plug-In . SVG Version: 6.00 Build 0)  -->
<svg version="1.1" id="Layer_1" xmlns="http://www.w3.org/2000/svg" xmlns:xlink="http://www.w3.org/1999/xlink" x="0px" y="0px"
	 viewBox="0 0 300 300" style="enable-background:new 0 0 300 300;" xml:space="preserve">
<style type="text/css">
	.st0{fill:#324C5E;}
</style>
<path class="st0" d="M224.3,136.1c1.2-16.7-4.8-33.1-17-46.2C192.9,74.4,172,65.5,150,65.5c-21.9,0-42.7,8.8-57.1,24.2
	c-12.2,13-18.3,29.5-17.2,46.3c2.2,32.9,13.6,41.8,23.8,49.6c7.8,6.1,14,10.8,15.1,27.9c0.1,1,0.5,2,1.1,2.8c0,0.3,0.1,0.7,0.2,1
	c0.6,2.3,2.6,3.8,4.9,3.8c0.4,0,0.9,0,1.3-0.2l61.8-16.2c0.5-0.1,1.1-0.3,1.5-0.5c1.5-0.7,2.6-2.2,2.8-3.8c3-7.7,7.7-11.5,13-15.8
	C210.9,176.8,222.1,168,224.3,136.1z M194.8,176.8c-5.8,4.6-11.7,9.3-15.7,18.8L124.3,210c-2-19.3-10.5-25.8-18.7-32.2
	c-9.3-7.2-18.1-14-19.9-42.3c-0.9-14,4.2-27.8,14.5-38.8c12.3-13.2,30.9-21,49.7-21c18.9,0,37.6,7.9,50,21.2
	c10.2,11,15.3,24.7,14.3,38.6C212.3,162.9,203.8,169.6,194.8,176.8z"/>
<path class="st0" d="M181.8,241.9l-62.4,16.4c-2.7,0.7-4.3,3.5-3.6,6.2c0.6,2.3,2.6,3.8,4.9,3.8c0.4,0,0.9,0,1.3-0.2l4.5-1.2
	c0.1,0.9,0.4,1.7,1,2.5c5,6.6,13.5,10.6,22.5,10.6c15.1,0,27.3-11,27.3-24.4c0-0.7-0.1-1.4-0.4-2l7.4-1.9c2.7-0.7,4.3-3.5,3.6-6.2
	C187.3,242.8,184.6,241.2,181.8,241.9z M150,269.9c-5.4,0-10.4-2.1-13.7-5.7l30.9-8.1C166.9,263.8,159.3,269.9,150,269.9z"/>
<path class="st0" d="M181.8,218.4l-62.4,16.4c-2.7,0.7-4.3,3.5-3.6,6.2c0.6,2.3,2.6,3.8,4.9,3.8c0.4,0,0.9,0,1.3-0.2l62.4-16.4
	c2.7-0.7,4.3-3.5,3.6-6.2C187.3,219.3,184.6,217.6,181.8,218.4z"/>
<path class="st0" d="M152,51.1c2.8,0,5-2.3,5-5V25c0-2.8-2.2-5-5-5s-5,2.3-5,5v21C147,48.8,149.2,51.1,152,51.1z"/>
<path class="st0" d="M224.7,50.5l-14.8,14.8c-2,2-2,5.2,0,7.1c1,1,2.3,1.5,3.6,1.5s2.6-0.5,3.6-1.5l14.8-14.8c2-2,2-5.2,0-7.1
	S226.7,48.5,224.7,50.5z"/>
<path class="st0" d="M262.9,131h-21c-2.8,0-5,2.2-5,5s2.3,5,5,5h21c2.8,0,5-2.2,5-5S265.7,131,262.9,131z"/>
<path class="st0" d="M214,195.7c-2-2-5.2-2-7.1,0c-2,2-2,5.2,0,7.1l14.8,14.8c1,1,2.3,1.5,3.6,1.5s2.6-0.5,3.6-1.5c2-2,2-5.2,0-7.1
	L214,195.7z"/>
<path class="st0" d="M86,72.4c1,1,2.3,1.5,3.6,1.5s2.6-0.5,3.6-1.5c2-2,2-5.2,0-7.1L78.3,50.5c-2-2-5.2-2-7.1,0s-2,5.2,0,7.1
	L86,72.4z"/>
<path class="st0" d="M58.1,126h-21c-2.8,0-5,2.7-5,5.5s2.3,5.5,5,5.5h21c2.8,0,5-2.7,5-5.5S60.9,126,58.1,126z"/>
<path class="st0" d="M83,195.7l-14.8,14.8c-2,2-2,5.2,0,7.1c1,1,2.3,1.5,3.6,1.5c1.3,0,2.6-0.5,3.6-1.5l14.8-14.8c2-2,2-5.2,0-7.1
	S84.9,193.7,83,195.7z"/>
<path class="st0" d="M184.5,113.1c-2.4-1.4-5.5-0.5-6.9,1.9l-30.4,53.8l-18.2-25c-1.6-2.3-4.8-2.8-7-1.1c-2.3,1.6-2.8,4.8-1.1,7
	l22.8,31.4c0.9,1.3,2.5,2.1,4.1,2.1c0.1,0,0.2,0,0.3,0c1.7-0.1,3.3-1.1,4.1-2.5l34.3-60.6C187.8,117.6,187,114.5,184.5,113.1z"/>
</svg>
