<?xml version="1.0" encoding="utf-8"?>
<!-- Generator: Adobe Illustrator 19.1.0, SVG Export Plug-In . SVG Version: 6.00 Build 0)  -->
<svg version="1.0" id="Layer_1" xmlns="http://www.w3.org/2000/svg" xmlns:xlink="http://www.w3.org/1999/xlink" x="0px" y="0px"
	 viewBox="0 0 18 24" style="enable-background:new 0 0 18 24;" xml:space="preserve">
<style type="text/css">
	.st0{fill:#717E8B;}
</style>
<g>
	<path class="st0" d="M16.3,24H1.6C0.7,24,0,23.3,0,22.4V10.3c0-0.9,0.7-1.6,1.6-1.6h14.8c0.9,0,1.6,0.7,1.6,1.6v12.1
		C17.9,23.3,17.2,24,16.3,24z M1.6,9.9c-0.2,0-0.3,0.1-0.3,0.3v12.2c0,0.2,0.1,0.3,0.3,0.3h14.8c0.2,0,0.3-0.1,0.3-0.3V10.3
		c0-0.2-0.1-0.3-0.3-0.3L1.6,9.9L1.6,9.9z"/>
	<path class="st0" d="M8.4,15c0,0,0,4,0,5s2,1,2,0s0-3,0-5C10.3,14,8.4,14,8.4,15C8.4,15,8.4,14,8.4,15z"/>
	<path class="st0" d="M15.3,9h-1V6.1c0-2.8-2.1-4.8-4.7-4.8C6.8,1.3,4.3,3.4,4.3,6v3h-1V6c0-3.3,2.8-6,6.3-6c3.3,0,5.7,2.6,5.7,6V9z
		"/>
</g>
</svg>
