<?xml version="1.0" encoding="utf-8"?>
<!-- Generator: Adobe Illustrator 19.1.0, SVG Export Plug-In . SVG Version: 6.00 Build 0)  -->
<svg version="1.1" id="Layer_1" xmlns="http://www.w3.org/2000/svg" xmlns:xlink="http://www.w3.org/1999/xlink" x="0px" y="0px"
	 viewBox="0 0 300 300" style="enable-background:new 0 0 300 300;" xml:space="preserve">
<g>
</g>
<path d="M150.6,20.6c-72.1,0-130,57.9-130,130s57.9,130,130,130s130-57.9,130-130S222.7,20.6,150.6,20.6L150.6,20.6z M221.5,156.5
	c0,3.6-2.4,5.9-5.9,5.9h-50.2c-1.8,0-3,1.2-3,3v50.2c0,3.6-2.4,5.9-5.9,5.9h-11.8c-3.6,0-5.9-2.4-5.9-5.9v-50.2c0-1.8-1.2-3-2.9-3
	H85.6c-3.6,0-5.9-2.4-5.9-5.9v-11.8c0-3.6,2.4-5.9,5.9-5.9h50.2c1.8,0,2.9-1.2,2.9-2.9V85.6c0-3.6,2.4-5.9,5.9-5.9h11.8
	c3.6,0,5.9,2.4,5.9,5.9v50.2c0,1.8,1.2,2.9,3,2.9h50.2c3.6,0,5.9,2.4,5.9,5.9v11.9H221.5z"/>
</svg>
