<?xml version="1.0" encoding="utf-8"?>
<!-- Generator: Adobe Illustrator 16.0.0, SVG Export Plug-In . SVG Version: 6.00 Build 0)  -->
<!DOCTYPE svg PUBLIC "-//W3C//DTD SVG 1.1//EN" "http://www.w3.org/Graphics/SVG/1.1/DTD/svg11.dtd">
<svg version="1.1" id="Layer_1" xmlns="http://www.w3.org/2000/svg" xmlns:xlink="http://www.w3.org/1999/xlink" x="0px" y="0px"
	 width="160px" height="160px" viewBox="0 0 160 160" enable-background="new 0 0 160 160" xml:space="preserve">
<path fill="#717E8B" d="M81.811,91.561c24.19,0,43.872-19.304,43.872-43.029c0-23.727-19.682-43.029-43.872-43.029
	c-24.192,0-43.873,19.303-43.873,43.029C37.938,72.257,57.619,91.561,81.811,91.561 M81.811,11.742
	c20.75,0,37.634,16.505,37.634,36.79c0,20.286-16.884,36.789-37.634,36.789c-20.752,0-37.633-16.502-37.633-36.789
	C44.177,28.247,61.058,11.742,81.811,11.742"/>
<path fill="#717E8B" d="M107.629,96.067H55.511c-28.875,0-52.368,22.642-52.368,51.518c0,4.544,3.696,7.391,8.239,7.391h140.377
	c4.544,0,8.241-2.847,8.241-7.391C160,118.709,136.507,96.067,107.629,96.067 M151.759,148.607H11.382
	c-1.104,0-2.001,0.082-2.001-1.022c0-25.437,20.695-45.149,46.13-45.149h52.118c25.438,0,46.134,19.713,46.134,45.149
	C153.763,148.689,152.863,148.607,151.759,148.607"/>
</svg>
