<?xml version="1.0" encoding="utf-8"?>
<!-- Generator: Adobe Illustrator 16.0.0, SVG Export Plug-In . SVG Version: 6.00 Build 0)  -->
<!DOCTYPE svg PUBLIC "-//W3C//DTD SVG 1.1//EN" "http://www.w3.org/Graphics/SVG/1.1/DTD/svg11.dtd">
<svg version="1.1" id="Layer_1" xmlns="http://www.w3.org/2000/svg" xmlns:xlink="http://www.w3.org/1999/xlink" x="0px" y="0px"
	 width="160px" height="160px" viewBox="0 0 160 160" enable-background="new 0 0 160 160" xml:space="preserve">
<path fill="#717E8B" d="M79.86,7.963c-40.335,0-73.151,32.815-73.151,73.152c0,40.338,32.815,73.153,73.151,73.153
	c40.337,0,73.153-32.815,73.153-73.153C153.014,40.778,120.197,7.963,79.86,7.963 M79.86,144.697
	c-35.061,0-63.58-28.521-63.58-63.582s28.519-63.581,63.58-63.581c35.062,0,63.582,28.521,63.582,63.581
	S114.922,144.697,79.86,144.697"/>
<g>
	<defs>
		<rect id="SVGID_1_" x="-267" y="103" width="165.979" height="165.979"/>
	</defs>
	<clipPath id="SVGID_2_">
		<use xlink:href="#SVGID_1_"  overflow="visible"/>
	</clipPath>
</g>
<path fill-rule="evenodd" clip-rule="evenodd" fill="#717E8B" d="M76.201,117.082c0.089-2.612,1.083-4.356,3.577-4.279
	c2.575,0.078,4.483,1.562,4.522,4.276c0.036,2.463-1.607,4.192-4.022,4.248C77.536,121.388,76.158,119.584,76.201,117.082z"/>
<path fill-rule="evenodd" clip-rule="evenodd" fill="#717E8B" d="M79.607,43.89c7.705,0.06,15.16,4.915,17.82,12.108
	c2.781,7.517,1.646,14.525-4.293,20.191c-4.971,4.743-9.608,9.479-9.563,17.03c0.012,1.96-1.665,2.726-3.423,2.609
	c-2.345-0.155-3.738-1.498-3.88-3.941c-0.388-6.651,1.902-12.36,6.218-17.304c1.15-1.317,2.527-2.439,3.814-3.635
	c3.729-3.463,4.72-7.949,2.703-12.31c-1.967-4.255-6.365-6.513-11.261-5.778c-4.433,0.665-6.806,3.287-7.627,8.798
	c-0.445,2.994-1.642,5.201-4.959,4.882c-3.492-0.334-3.789-3.009-3.673-5.879C61.854,51.454,70.066,43.816,79.607,43.89z"/>
</svg>
