<?xml version="1.0" encoding="utf-8"?>
<!-- Generator: Adobe Illustrator 16.0.0, SVG Export Plug-In . SVG Version: 6.00 Build 0)  -->
<!DOCTYPE svg PUBLIC "-//W3C//DTD SVG 1.1//EN" "http://www.w3.org/Graphics/SVG/1.1/DTD/svg11.dtd">
<svg version="1.1" id="Layer_1" xmlns="http://www.w3.org/2000/svg" xmlns:xlink="http://www.w3.org/1999/xlink" x="0px" y="0px"
	 width="160px" height="160px" viewBox="0 0 160 160" enable-background="new 0 0 160 160" xml:space="preserve">
<g>
	<defs>
		<rect id="SVGID_1_" x="-267" y="103" width="165.979" height="165.979"/>
	</defs>
	<clipPath id="SVGID_2_">
		<use xlink:href="#SVGID_1_"  overflow="visible"/>
	</clipPath>
</g>
<path fill="#717E8B" d="M33.558,68.495c-7.768,0-14.087,6.319-14.087,14.087c0,7.767,6.32,14.086,14.087,14.086
	c7.767,0,14.087-6.319,14.087-14.086C47.646,74.814,41.325,68.495,33.558,68.495 M33.558,93.347
	c-5.937,0-10.767-4.828-10.767-10.765c0-5.938,4.831-10.769,10.767-10.769c5.936,0,10.767,4.831,10.767,10.769
	C44.325,88.519,39.494,93.347,33.558,93.347"/>
<path fill="#717E8B" d="M151.497,78.718l-7.995-8.623c-0.892-1.017-2.206-1.277-3.908-1.277H72.852
	c-5.905-11.831-18.44-20.383-31.324-20.383c-19.101,0-34.641,15.358-34.641,34.394c0,19.224,15.54,34.86,34.641,34.86
	c13.613,0,25.928-6.722,31.501-20.031h22.224c0.101,0,0.199-0.071,0.297-0.079c0.055-0.003,0.123-0.042,0.173-0.042l6.652,8.092
	c0.957,1.183,2.432,1.855,4.046,1.855c0.106,0,0.213-0.02,0.32-0.04c0.025-0.005,0.052-0.015,0.077-0.017
	c1.701-0.13,3.231-1.099,4.095-2.588l5.821-9.862c0.061-0.104,0.093-0.125,0.344-0.11c0.099,0.007,0.165,0.006,0.269,0
	c0.254-0.019,0.278,0.006,0.336,0.104l5.61,9.638c0.797,1.379,2.189,2.295,3.822,2.511c1.602,0.213,3.187-0.337,4.353-1.498
	l19.794-19.79C153.197,83.898,153.3,80.774,151.497,78.718 M41.528,112.686c-16.538,0-29.991-13.478-29.991-30.047
	c0-16.604,13.453-30.114,29.991-30.114c11.221,0,21.421,6.298,26.601,16.39c0.204,0.487,0.401,1.017,0.587,1.524
	c0.347,0.93,0.644,2.253,0.953,2.732l0.197,0.823h69.728c0.083,0,0.166-0.524,0.244-0.527c0.063-0.004,0.149-0.269,0.201-0.267
	l7.961,8.83c0.189,0.215,0.18,0.338-0.025,0.54l-19.794,19.76c-0.128,0.126-0.287,0.168-0.458,0.146
	c-0.173-0.024-0.316-0.126-0.404-0.28l-5.61-9.548c-0.888-1.538-2.526-2.424-4.501-2.424c-1.968,0-3.605,0.879-4.492,2.41
	l-5.82,9.939c-0.1,0.17-0.233,0.21-0.435,0.226c-0.027,0.005-0.271,0.015-0.472-0.232l-6.692-7.853
	c-0.891-1.105-2.251-1.493-4.043-1.493H69.875l-0.145,0.296c-0.382,1.232-0.826,2.077-1.316,2.682l-0.078,0.077
	C63.197,106.424,52.924,112.686,41.528,112.686"/>
</svg>
