<?xml version="1.0" encoding="utf-8"?>
<!-- Generator: Adobe Illustrator 19.1.0, SVG Export Plug-In . SVG Version: 6.00 Build 0)  -->
<svg version="1.1" id="Layer_1" xmlns="http://www.w3.org/2000/svg" xmlns:xlink="http://www.w3.org/1999/xlink" x="0px" y="0px"
	 viewBox="-98.9 100.8 26 26" style="enable-background:new -98.9 100.8 26 26;" xml:space="preserve">
<style type="text/css">
	.st0{fill:#8697A7;}
</style>
<path class="st0" d="M-73.6,113.4l-4.3-4.3c-0.2-0.2-0.4-0.2-0.6-0.1c-0.2,0.1-0.3,0.3-0.3,0.5v2h-0.3h-2.6h-2v-4.9h2
	c0.2,0,0.4-0.1,0.5-0.3c0.1-0.2,0-0.4-0.1-0.6l-4.3-4.3c-0.2-0.2-0.5-0.2-0.8,0l-4.3,4.3c-0.2,0.2-0.2,0.4-0.1,0.6
	c0.1,0.2,0.3,0.3,0.5,0.3h2v4.9h-4.9v-2c0-0.2-0.1-0.4-0.3-0.5c-0.2-0.1-0.4,0-0.6,0.1l-4.3,4.3c-0.1,0.1-0.2,0.2-0.2,0.4
	c0,0.1,0.1,0.3,0.2,0.4l4.3,4.3c0.1,0.1,0.2,0.2,0.4,0.2c0.1,0,0.1,0,0.2,0c0.2-0.1,0.3-0.3,0.3-0.5v-2h4.9v1.8c0,0,0,0.1,0,0.1
	c0,0,0,0.1,0,0.1v2.9h-2c-0.2,0-0.4,0.1-0.5,0.3c-0.1,0.2,0,0.4,0.1,0.6l4.3,4.3c0.1,0.1,0.2,0.2,0.4,0.2s0.3-0.1,0.4-0.2l4.3-4.3
	c0.2-0.2,0.2-0.4,0.1-0.6c-0.1-0.2-0.3-0.3-0.5-0.3h-2V118c0,0,0-0.1,0-0.1c0,0,0-0.1,0-0.1V116h2c0,0,0,0,0,0h2.9v2
	c0,0.2,0.1,0.4,0.3,0.5c0.1,0,0.1,0,0.2,0c0.1,0,0.3-0.1,0.4-0.2l4.3-4.3c0.1-0.1,0.2-0.2,0.2-0.4
	C-73.4,113.6-73.5,113.5-73.6,113.4z"/>
</svg>
