<?xml version="1.0" encoding="utf-8"?>
<!-- Generator: Adobe Illustrator 19.1.0, SVG Export Plug-In . SVG Version: 6.00 Build 0)  -->
<svg version="1.1" id="Layer_1" xmlns="http://www.w3.org/2000/svg" xmlns:xlink="http://www.w3.org/1999/xlink" x="0px" y="0px"
	 viewBox="0 0 300 300" style="enable-background:new 0 0 300 300;" xml:space="preserve">
<path d="M254,244.7L239.1,77.1c-0.3-3.7-3.5-6.5-7.1-6.5h-30.6C200.9,42.6,178.1,20,150,20S99.1,42.6,98.6,70.6H68
	c-3.7,0-6.8,2.8-7.1,6.5L46,244.7c0,0.2-0.1,0.4-0.1,0.6c0,19.1,17.5,34.6,39,34.6H215c21.5,0,39-15.5,39-34.6
	C254.1,245.2,254.1,245,254,244.7L254,244.7z M150,34.4c20.2,0,36.6,16.2,37,36.2h-74C113.4,50.5,129.8,34.4,150,34.4L150,34.4z
	 M215,265.6H85c-13.5,0-24.5-8.9-24.7-19.9L74.6,85h24v21.8c0,4,3.2,7.2,7.2,7.2s7.2-3.2,7.2-7.2V85h74v21.8c0,4,3.2,7.2,7.2,7.2
	s7.2-3.2,7.2-7.2V85h24l14.3,160.7C239.5,256.7,228.5,265.6,215,265.6L215,265.6z"/>
</svg>
