<?xml version="1.0" encoding="utf-8"?>
<!-- Generator: Adobe Illustrator 16.0.0, SVG Export Plug-In . SVG Version: 6.00 Build 0)  -->
<!DOCTYPE svg PUBLIC "-//W3C//DTD SVG 1.1//EN" "http://www.w3.org/Graphics/SVG/1.1/DTD/svg11.dtd">
<svg version="1.1" id="Layer_1" xmlns="http://www.w3.org/2000/svg" xmlns:xlink="http://www.w3.org/1999/xlink" x="0px" y="0px"
	 width="160px" height="160px" viewBox="0 0 160 160" enable-background="new 0 0 160 160" xml:space="preserve">
<path fill="#717E8B" d="M79.86,7.963c-40.335,0-73.151,32.815-73.151,73.152c0,40.338,32.815,73.153,73.151,73.153
	c40.337,0,73.153-32.815,73.153-73.153C153.014,40.778,120.197,7.963,79.86,7.963 M79.86,144.697
	c-35.061,0-63.58-28.521-63.58-63.582s28.519-63.581,63.58-63.581c35.062,0,63.582,28.521,63.582,63.581
	S114.922,144.697,79.86,144.697"/>
<g>
	<defs>
		<rect id="SVGID_1_" x="-267" y="103" width="165.979" height="165.979"/>
	</defs>
	<clipPath id="SVGID_2_">
		<use xlink:href="#SVGID_1_"  overflow="visible"/>
	</clipPath>
</g>
<path fill-rule="evenodd" clip-rule="evenodd" fill="#74808D" d="M84.6,95.726c-0.001,5.82-0.045,11.642,0.018,17.462
	c0.032,3.158-0.879,5.7-4.447,5.682c-3.529-0.02-4.492-2.533-4.481-5.694c0.038-11.784,0.051-23.573-0.01-35.358
	c-0.016-3.214,1.037-5.677,4.495-5.688c3.506-0.012,4.492,2.511,4.448,5.7C84.545,83.794,84.601,89.761,84.6,95.726z"/>
<path fill-rule="evenodd" clip-rule="evenodd" fill="#74808D" d="M87.651,52.76c-0.242,4.115-3.722,7.187-7.906,6.98
	c-4.21-0.208-7.188-3.54-6.98-7.809c0.201-4.139,3.715-7.317,7.809-7.061C84.65,45.126,87.888,48.736,87.651,52.76z"/>
</svg>
