<?xml version="1.0" encoding="utf-8"?>
<!-- Generator: Adobe Illustrator 19.1.0, SVG Export Plug-In . SVG Version: 6.00 Build 0)  -->
<svg version="1.1" id="Layer_1" xmlns="http://www.w3.org/2000/svg" xmlns:xlink="http://www.w3.org/1999/xlink" x="0px" y="0px"
	 viewBox="0 0 300 300" style="enable-background:new 0 0 300 300;" xml:space="preserve">
<style type="text/css">
	.st0{fill:#20FFB1;}
</style>
<path class="st0" d="M280,104.9c0,18.1-7,35.1-19.9,47.9l-110,110L39.8,152.6C27,139.8,20,122.8,20,104.8c0-18.1,7-35.1,19.7-48
	C52.5,44,69.4,37.1,87.5,37.1s35.1,7,47.9,19.9l4.6,4.6c5.6,5.6,14.4,5.6,20,0l4.5-4.5c12.8-12.8,29.8-19.9,48-19.9
	c18,0,34.9,7,47.7,19.9C273.1,69.9,280.1,86.9,280,104.9z"/>
</svg>
