<?xml version="1.0" encoding="utf-8"?>
<!-- Generator: Adobe Illustrator 19.1.0, SVG Export Plug-In . SVG Version: 6.00 Build 0)  -->
<svg version="1.1" id="Layer_1" xmlns="http://www.w3.org/2000/svg" xmlns:xlink="http://www.w3.org/1999/xlink" x="0px" y="0px"
	 viewBox="0 0 300 300" style="enable-background:new 0 0 300 300;" xml:space="preserve">
<path d="M34.2,279.1h60.6v-139H34.2V279.1z M44.9,150.9h39.2v117.6H44.9V150.9z"/>
<path d="M87.3,86.8l33.8,33.8l85.5-85.5l23.2,23.2l17.7-17.7L240,33l-10.2,10.2L206.6,20l-85.5,85.5L87.2,71.8l-37.7,37.7l7.6,7.6
	L87.3,86.8z"/>
<path d="M119.7,279.1h60.6v-78.4h-60.6C119.7,200.7,119.7,279.1,119.7,279.1z M130.4,211.5h39.2v57h-39.2V211.5z"/>
<path d="M205.3,90.2v188.9h60.6V90.2H205.3z M255.2,268.5H216V100.9h39.2V268.5z"/>
</svg>
