<?xml version="1.0" encoding="utf-8"?>
<!-- Generator: Adobe Illustrator 19.1.0, SVG Export Plug-In . SVG Version: 6.00 Build 0)  -->
<svg version="1.1" id="Layer_1" xmlns="http://www.w3.org/2000/svg" xmlns:xlink="http://www.w3.org/1999/xlink" x="0px" y="0px"
	 viewBox="0 0 300 300" style="enable-background:new 0 0 300 300;" xml:space="preserve">
<style type="text/css">
	.st0{fill:#B171E3;}
</style>
<path class="st0" d="M150,20C78.3,20,20,78.3,20,150s58.3,130,130,130s130-58.3,130-130S221.7,20,150,20z M240.7,143.8
	c-1,0.9-2.4,0.2-3.8,0.2c-6.1,0-12.1,0-18.2,0c0.1,22,0.9,42.6,0.1,63.5c-1.1,27.5-27.1,23-47.2,23c-2.5,0-3.5-2.1-3.5-4.6
	c0-8,0-16,0-24c0-11.8-3.9-14.9-15.6-14.9c-11.8,0-15.4,2.9-15.4,14.7c0,8,0,16.1,0,24.1c0,2.5-3.3,4.4-5.8,4.4
	c-19.2,0-47.8,5-48.9-21.5c-0.9-21.3-0.6-42.8-0.5-64.8c-6.6,0-13.2,0-19.9,0c-5,0-5.8-5.5-2.4-8.1c29.3-22.1,58.7-43.7,88-65.8
	c1.2-0.9,3.5-0.9,4.7,0c29.3,22.1,58.6,44.1,88,66.2C243.1,137.9,243.2,141.9,240.7,143.8z"/>
</svg>
