<?xml version="1.0" encoding="utf-8"?>
<!-- Generator: Adobe Illustrator 19.1.0, SVG Export Plug-In . SVG Version: 6.00 Build 0)  -->
<svg version="1.1" id="Layer_1" xmlns="http://www.w3.org/2000/svg" xmlns:xlink="http://www.w3.org/1999/xlink" x="0px" y="0px"
	 viewBox="0 0 300 300" style="enable-background:new 0 0 300 300;" xml:space="preserve">
<style type="text/css">
	.st0{fill:#5E5E5E;}
</style>
<g>
	<path class="st0" d="M49.8,252.3c-2.9,0-11,0-12.6-6.3c-5.2-0.8-7.2-3.9-7.9-5.9c-1.7-4.4-0.4-8,1.2-10.5c-0.9-1.5-1.7-3.4-1.7-5.9
		c0-7.9,4.1-10.1,47.6-15.5c3.3-1.1,6.7-2,9.9-2.8c1.9-0.5,4.4-1.1,6.3-1.7c-0.2-0.6-0.4-1.2-0.6-1.8c-1.4-4.6-2.8-8.9-5.3-10.7
		c-35-24.6-65.6-87.7-65.7-92.9c0-2.4,0.8-4.6,2.5-6.2c0.1-0.1,0.2-0.2,0.3-0.3c-0.9-3.5-0.8-7.7,3.6-10.2c0.1-0.1,0.3-0.2,0.4-0.2
		c-0.1-0.9,0-1.8,0.2-2.7c0.5-2.4,2.1-4.4,4.2-5.6c-0.9-3.2-0.4-6.2,3-8.7c0.4-0.3,0.9-0.6,1.4-0.9c-0.1-0.2-0.2-0.5-0.3-0.7
		c-0.6-1.5-2.3-5.6,0.2-9.4c1.4-2.2,3.9-3.5,6.6-3.5c4.1,0,6.3,2.1,14.5,10.1c11.2,10.9,32,31,56,43.4c10.5,5.4,20.5,23,30.7,42.1
		c1.4,2.7,2.8,5.3,3.9,7.1c2.8-1.4,9-6,22-19.8c3.6-3.8,4.9-5.2,6.5-6c0.4-0.4,0.7-0.9,1.1-1.4c1.1-1.4,2.1-2.7,3.1-3.7
		c2.2-2.2,4.9-3.3,7.9-3.4c1.4-1.8,3.7-3.6,7.4-4.8c4.1-1.3,8.8-0.1,12.8,2c0.5-2.1,1.5-4.1,3.5-5.6c3.4-2.6,8-1.8,11,0.6
		c0.9-3.2,3-6.2,7.7-6.6c3.8-0.3,6.5,1.6,8.9,4.1c1.9-4.7,4.7-8.7,10.1-8.7l1.4,0.1c2.7,0.3,4.5,1.6,5.8,3.2c1.7-1.8,3.8-3,6.6-3
		c1.4,0,2.9,0.4,4.1,1c3.8,2,4.9,5.4,4.9,9.2c1.8,0.3,3.5,1.1,4.9,2.4c4,3.7,3.2,10.2,2.4,13.8c-1.5,6.6-7.6,22.7-32.2,30.6
		c-18.4,5.9-33.6,28.7-39.6,39.8c3,1.3,6.7,3.1,10.4,6.1c7.1,5.6,9.7,13.8,9.8,20.4c1.6,3.1,2.1,6.8,1.2,10.3
		c-2.6,10-10,12.5-15.1,11.3l-3.4-0.8l-1.8-3.2c-0.2-0.3-2.5-4.6-8.2-6.1c-0.2-0.1-0.8-0.2-1.7-0.2c-4.9,0-12.6,3-19.4,5.6
		c-4.4,1.7-8.5,3.3-12.3,4.3c-2.2,0.6-6.7,1.3-21.8,1.3c-18.5,0-45-1.1-63-2c-1,0.4-2,0.9-3,1.4c-1.8,0.9-3.7,1.8-5.9,2.8
		C66.7,251,56.6,252.3,49.8,252.3z"/>
</g>
</svg>
