<?xml version="1.0" encoding="utf-8"?>
<!-- Generator: Adobe Illustrator 19.1.0, SVG Export Plug-In . SVG Version: 6.00 Build 0)  -->
<svg version="1.0" id="Layer_1" xmlns="http://www.w3.org/2000/svg" xmlns:xlink="http://www.w3.org/1999/xlink" x="0px" y="0px"
	 viewBox="0 0 20 20" style="enable-background:new 0 0 20 20;" xml:space="preserve">
<style type="text/css">
	.st0{fill:none;stroke:#0EBAB1;stroke-width:1.44;stroke-linecap:round;stroke-linejoin:round;stroke-miterlimit:22.9256;}
</style>
<g>
	<line class="st0" x1="10" y1="4" x2="10" y2="5.9"/>
	<line class="st0" x1="10" y1="14" x2="10" y2="15.9"/>
	<path class="st0" d="M10,1.3c4.8,0,8.7,3.9,8.7,8.7s-3.9,8.7-8.7,8.7c-4.8-0.1-8.7-4-8.7-8.7S5.2,1.3,10,1.3L10,1.3z"/>
	<path class="st0" d="M12.7,6.9c-0.9-0.3-1.7-0.6-2.4-0.7C6.1,5.8,5.5,10,10,10c4.3,0,3.9,4.2-0.3,3.7c-0.8-0.1-1.5-0.4-2.4-0.7"/>
</g>
</svg>
