<?xml version="1.0" encoding="utf-8"?>
<!-- Generator: Adobe Illustrator 16.0.0, SVG Export Plug-In . SVG Version: 6.00 Build 0)  -->
<!DOCTYPE svg PUBLIC "-//W3C//DTD SVG 1.1//EN" "http://www.w3.org/Graphics/SVG/1.1/DTD/svg11.dtd">
<svg version="1.1" id="Layer_1" xmlns="http://www.w3.org/2000/svg" xmlns:xlink="http://www.w3.org/1999/xlink" x="0px" y="0px"
	 width="160px" height="160px" viewBox="0 0 160 160" enable-background="new 0 0 160 160" xml:space="preserve">
<path fill="#717E8B" d="M113.02,7H45.511c-7.253,0-13.053,5.255-13.053,12.647v121.25c0,7.389,5.8,14.104,13.053,14.104h67.512
	c7.252,0,13.521-6.717,13.521-14.107V19.647C126.543,12.255,120.273,7,113.02,7 M119.143,127.516v13.377
	c0,3.521-2.74,7.766-6.123,7.766H45.511c-3.381,0-5.653-4.245-5.653-7.766v-13.377H119.143L119.143,127.516z M119.143,119.059
	H39.857V27.086h79.286V119.059L119.143,119.059z M119.123,19.686H39.409c0.31-3.171,2.928-5.286,6.102-5.286h67.512
	C116.195,14.4,118.813,16.514,119.123,19.686"/>
<path fill="#717E8B" d="M79.266,146.159c5.222,0,9.47-4.25,9.47-9.47c0-5.223-4.248-9.469-9.47-9.469s-9.469,4.246-9.469,9.469
	C69.797,141.909,74.044,146.159,79.266,146.159 M79.266,134.241c1.35,0,2.447,1.099,2.447,2.448s-1.098,2.447-2.447,2.447
	s-2.447-1.099-2.447-2.447C76.819,135.34,77.917,134.241,79.266,134.241"/>
</svg>
