<?xml version="1.0" encoding="utf-8"?>
<!-- Generator: Adobe Illustrator 19.1.0, SVG Export Plug-In . SVG Version: 6.00 Build 0)  -->
<svg version="1.1" id="Layer_1" xmlns="http://www.w3.org/2000/svg" xmlns:xlink="http://www.w3.org/1999/xlink" x="0px" y="0px"
	 viewBox="0 0 300 300" style="enable-background:new 0 0 300 300;" xml:space="preserve">
<style type="text/css">
	.st0{fill:#5E5E5E;}
</style>
<path class="st0" d="M186.7,179.8l-5.7-33.1l24-23.4c1.4-1.4,1.9-3.4,1.3-5.2s-2.2-3.2-4.1-3.5l-33.2-4.8l-14.9-30.1
	c-0.9-1.7-2.6-2.8-4.5-2.8s-3.7,1.1-4.6,2.8l-14.9,30.1l-33.2,4.8c-1.9,0.3-3.5,1.6-4.1,3.5c-0.6,1.8-0.1,3.9,1.3,5.2l24,23.4
	l-5.7,33.1c-0.3,1.9,0.5,3.8,2,5c1.6,1.1,3.6,1.3,5.3,0.4l29.7-15.6l29.7,15.6c0.7,0.4,1.6,0.6,2.4,0.6c1.1,0,2.1-0.3,3-1
	C186.2,183.6,187,181.7,186.7,179.8z"/>
<path class="st0" d="M161.2,213H90.5c-2.8,0-5.1,2.3-5.1,5.1s2.3,5.1,5.1,5.1h70.6c2.8,0,5.1-2.3,5.1-5.1
	C166.2,215.3,164,213,161.2,213z"/>
<path class="st0" d="M209.5,213h-21.8c-2.8,0-5.1,2.3-5.1,5.1s2.3,5.1,5.1,5.1h21.8c2.8,0,5.1-2.3,5.1-5.1S212.3,213,209.5,213z"/>
<path class="st0" d="M279.7,154.8c-0.6-1.8-2.2-3.2-4.1-3.5l-21.6-3.1l-9.7-19.6c-0.9-1.7-2.6-2.8-4.6-2.8c-1.9,0-3.7,1.1-4.5,2.8
	l-9.7,19.6l-21.6,3.1c-1.9,0.3-3.5,1.6-4.1,3.5c-0.6,1.8-0.1,3.9,1.3,5.2l15.7,15.3l-3.7,21.6c-0.3,1.9,0.5,3.8,2,5
	c1.6,1.1,3.6,1.3,5.3,0.4l19.4-10.2l19.4,10.2c0.7,0.4,1.6,0.6,2.4,0.6c1.1,0,2.1-0.3,3-1c1.6-1.1,2.3-3.1,2-5l-3.7-21.6l15.7-15.3
	C279.8,158.7,280.3,156.7,279.7,154.8z"/>
<path class="st0" d="M87,197l-3.7-21.6L99,160c1.4-1.3,1.9-3.4,1.3-5.2s-2.2-3.2-4.1-3.5l-21.6-3.1l-9.7-19.6
	c-0.9-1.7-2.6-2.8-4.5-2.8s-3.7,1.1-4.6,2.8L46,148.2l-21.6,3.1c-1.9,0.3-3.5,1.6-4.1,3.5c-0.6,1.8-0.1,3.9,1.3,5.2l15.7,15.3
	L33.6,197c-0.3,1.9,0.5,3.8,2,5c0.9,0.6,1.9,1,3,1c0.8,0,1.6-0.2,2.4-0.6l19.4-10.2l19.4,10.2c1.7,0.9,3.8,0.7,5.3-0.4
	C86.5,200.8,87.3,198.9,87,197z"/>
</svg>
