<?xml version="1.0" encoding="utf-8"?>
<!-- Generator: Adobe Illustrator 19.1.0, SVG Export Plug-In . SVG Version: 6.00 Build 0)  -->
<svg version="1.1" id="Layer_1" xmlns="http://www.w3.org/2000/svg" xmlns:xlink="http://www.w3.org/1999/xlink" x="0px" y="0px"
	 viewBox="0 0 300 300" style="enable-background:new 0 0 300 300;" xml:space="preserve">
<style type="text/css">
	.st0{fill:#5E5E5E;}
</style>
<path class="st0" d="M271.3,195.3c-3-5.1-7.2-15-11.1-21.7l-5.7-11.1c-3.6-6.2-9-10.3-14.8-10.3s-11.2,3.2-14.8,9.5
	c-0.2,0.4-0.5,0.7-0.8,1.2l-44.6-71.5c-4.4-7.6-10.9-6.3-17.9-6.3h-0.1c-7,0-13.6-1.4-18.1,6.2l-24,38.8c-1.6-2.9-5.1-6.6-5.1-6.6
	c-4.4-7.6-13.2-13.2-20.2-13.2v-0.1c-9,0-11.5,9.3-15.9,17L26,226h260L271.3,195.3z"/>
</svg>
