<?xml version="1.0" encoding="utf-8"?>
<!-- Generator: Adobe Illustrator 19.1.0, SVG Export Plug-In . SVG Version: 6.00 Build 0)  -->
<svg version="1.1" id="Layer_1" xmlns="http://www.w3.org/2000/svg" xmlns:xlink="http://www.w3.org/1999/xlink" x="0px" y="0px"
	 viewBox="0 0 300 300" style="enable-background:new 0 0 300 300;" xml:space="preserve">
<path d="M149.8,63.8c-0.6-16.6-8.6-28.4-19.5-35.5c-0.4-0.4-3.4-2.1-4.5-2.7c-5.9-2.9-12.3-4.8-18.8-5.5c-1.3-0.2-6.4-0.2-7.4-0.1
	c-21,2-43,16.1-44,43.8c-0.9,24.1,8.1,43.5,24.6,53.3c6.9,4.2,14.7,6.2,22.5,6.2s15.6-2.1,22.5-6.2
	C141.7,107.3,150.7,87.9,149.8,63.8z M118.6,106c-9.8,5.8-22,5.8-31.8,0c-12.3-7.3-18.9-22.6-18.3-41.9
	c0.7-20.8,17.7-30.8,34.1-31.4c5.5,0.3,10.9,1.5,15.9,3.8c-4.8,12.9-17.7,18.5-28.9,19.3c-3.6,0.3-6.3,3.3-6,6.9
	c0.3,3.6,3.3,6.3,6.9,6c17.6-1.3,31.9-10.5,38.7-24.3c4.5,5,7.4,11.5,7.7,19.9C137.6,83.5,131,98.7,118.6,106z"/>
<path d="M159.9,134.8c-2.5-2.5-2.5-6.6,0-9.1l71.3-71.3l-5.3,0.6c-3.6,0.4-6.7-2.1-7.2-5.7c-0.4-3.6,2.2-6.7,5.7-7.2l23.7-2.7
	c1.2-0.2,2.6,0,3.7,0.6c2.3,1.1,3.8,3.5,3.8,6.1l0,0c0,0.2-0.1,0.3-0.2,0.5l-2.8,23.8c-0.4,3.6-3.6,6.1-7.2,5.7
	c-3.6-0.4-6.1-3.6-5.7-7.2l0.6-5.3L169,134.7c-1.3,1.3-2.9,1.9-4.6,1.9C162.8,136.7,161.1,136.1,159.9,134.8L159.9,134.8z"/>
<path d="M156.2,192c3.5-0.6,5.8-4.1,5.2-7.6l-1.1-5.8c-5.3-28.9-32.5-41.9-57.2-41.9h-0.4c-0.1,0-0.1,0-0.2,0.1
	c-24.8,0.2-51.9,13.2-57.2,42l-15.2,82.5c-0.4,1.9,0.2,3.9,1.4,5.3c1.2,1.5,3,2.4,5,2.4h85.8c3.6,0,6.5-2.9,6.5-6.5
	s-2.9-6.5-6.5-6.5H44.4l13.8-74.8c4-21.6,25.3-31.3,44.8-31.3c19.4,0.1,40.7,9.8,44.6,31.2l1.1,5.7
	C149.3,190.3,152.7,192.7,156.2,192L156.2,192z"/>
<path d="M109.7,180.1c-3.6,0-6.5,2.9-6.5,6.5s2.9,6.5,6.5,6.5h12.6c3.6,0,6.5-2.9,6.5-6.5s-2.9-6.5-6.5-6.5H109.7z"/>
<path d="M269.8,152.2v121.6c0,3.6-2.9,6.2-6.5,6.2H154.6c-3.6,0-6.7-2.6-6.7-6.2v-53.4c0-3.6,3.1-6.5,6.7-6.5h42.3
	c3.6,0,6.7,3,6.7,6.5V267h20.1v-75.9h-29.2v5.4c0,3.6-2.9,6.5-6.5,6.5s-6.5-2.9-6.5-6.5v-11.7c0-3.6,2.6-6.7,6.2-6.7H230
	c3.6,0,6.6,3.1,6.6,6.7V267h20.1V158.8h-29.2v2c0,3.6-2.9,6.5-6.5,6.5s-6.5-2.9-6.5-6.5v-8.5c0-3.6,2.7-6.5,6.3-6.5h42.3
	C266.9,145.8,269.8,148.7,269.8,152.2L269.8,152.2z M190.7,226.8h-29.9V267h29.9V226.8L190.7,226.8z"/>
</svg>
