<?xml version="1.0" encoding="utf-8"?>
<!-- Generator: Adobe Illustrator 16.0.0, SVG Export Plug-In . SVG Version: 6.00 Build 0)  -->
<!DOCTYPE svg PUBLIC "-//W3C//DTD SVG 1.1//EN" "http://www.w3.org/Graphics/SVG/1.1/DTD/svg11.dtd">
<svg version="1.1" id="Layer_1" xmlns="http://www.w3.org/2000/svg" xmlns:xlink="http://www.w3.org/1999/xlink" x="0px" y="0px"
	 width="160px" height="160px" viewBox="0 0 160 160" enable-background="new 0 0 160 160" xml:space="preserve">
<path fill="#717E8B" d="M125.494,73.204H84.957c-4.677,0-4.677,7.796,0,7.796h40.537C128.613,81,128.613,73.204,125.494,73.204"/>
<path fill="#717E8B" d="M125.494,88.796H84.957c-4.677,0-4.677,3.118,0,3.118h40.537C128.613,91.914,128.613,88.796,125.494,88.796"
	/>
<path fill="#717E8B" d="M125.494,98.15H84.957c-4.677,0-4.677,6.236,0,6.236h40.537C128.613,104.387,128.613,98.15,125.494,98.15"/>
<path fill="#717E8B" d="M84.957,112.183c-4.677,0-4.677,9.355,0,9.355h18.71c4.677,0,4.677-9.355,0-9.355H84.957z"/>
<path fill="#717E8B" d="M32.793,123.568c0.211-9.322,4.38-21.371,15.573-21.438c11.275-0.067,15.366,12.126,15.573,21.438
	c0.085,3.798,5.995,3.812,5.911,0c-0.285-12.668-6.788-27.4-21.484-27.346c-14.617,0.052-21.196,14.693-21.482,27.346
	C26.798,127.374,32.708,127.372,32.793,123.568"/>
<path fill="#717E8B" d="M48.167,91.236c7.649,0,13.871-6.223,13.871-13.872c0-7.648-6.221-13.869-13.871-13.869
	c-7.648,0-13.869,6.221-13.869,13.869C34.297,85.014,40.519,91.236,48.167,91.236 M48.167,69.405c4.391,0,7.961,3.571,7.961,7.959
	c0,4.39-3.57,7.962-7.961,7.962c-4.388,0-7.96-3.572-7.96-7.962C40.207,72.976,43.778,69.405,48.167,69.405"/>
<path fill="#717E8B" d="M138.083,32.667h-23.545c-2.126,0-3.943,2.746-4.337,4.937c-0.228,1.266,0.116,2.203,0.944,3.194
	c0.839,1.004,2.071,1.224,3.382,1.224h23.722c1.229,0,4.396,2.917,4.396,4.146v89.765c0,1.441-3.341,2.756-4.781,2.756H19.496
	c-1.938,0-1.582-1.721-1.582-3.66V46.334c0-1.319-0.86-4.313,0.46-4.313H44.23c1.308,0,2.542,0.384,3.379-0.621
	c0.83-0.992,1.174-3.012,0.932-4.345c-0.376-2.124-2.197-4.389-4.323-4.389H19.496C12.667,32.667,7,40.629,7,47.458v88.474
	c0,6.331,5.261,10.551,11.591,10.551h119.658c6.118,0,13.751-4.05,13.751-10.167V46.334C152,40.126,144.293,32.667,138.083,32.667"
	/>
<path fill="#717E8B" d="M78.658,58.07c9.939,0,18.845-5.917,22.08-15.114c0.795-2.3,1.369-7.73,1.369-8.119v-8.193
	c0-5.717-5.452-11.128-11.17-11.128H65.354c-5.72,0-10.02,5.411-10.02,11.128v8.193c0,0.389,0.798,5.819,1.594,8.119
	C60.163,52.153,68.718,58.07,78.658,58.07 M64.094,23.312h26.843c1.914,0,4.934,1.419,4.934,3.332v8.193
	c0,0.389-1.604,5.819-2.764,8.119c-2.754,4.598-8.229,8.217-14.268,8.217c-6.042,0-11.33-3.619-14.084-8.217
	c-1.159-2.3-1.402-4.169-1.575-6.467C63.155,36.488,62.177,23.312,64.094,23.312"/>
</svg>
