<?xml version="1.0" encoding="utf-8"?>
<!-- Generator: Adobe Illustrator 19.1.0, SVG Export Plug-In . SVG Version: 6.00 Build 0)  -->
<svg version="1.1" id="Layer_1" xmlns="http://www.w3.org/2000/svg" xmlns:xlink="http://www.w3.org/1999/xlink" x="0px" y="0px"
	 viewBox="0 0 300 300" style="enable-background:new 0 0 300 300;" xml:space="preserve">
<style type="text/css">
	.st0{fill:#8FABC1;}
</style>
<path class="st0" d="M270,150c0-66.3-53.7-120-120-120S30,83.7,30,150s53.7,120,120,120S270,216.3,270,150z M145.3,233.1L58.9,106.5
	c-0.7-1-1-2.1-1-3.2c0-0.9,0.2-1.9,0.7-2.7c1-1.9,3-3.1,5.1-3.1h172.7c2.1,0,4.1,1.2,5.1,3.1s0.9,4.2-0.3,5.9l-86.4,126.7
	c-1.1,1.5-2.8,2.5-4.7,2.5C148.1,235.6,146.3,234.7,145.3,233.1z"/>
</svg>
