<?xml version="1.0" encoding="utf-8"?>
<!-- Generator: Adobe Illustrator 19.1.0, SVG Export Plug-In . SVG Version: 6.00 Build 0)  -->
<svg version="1.1" id="Layer_1" xmlns="http://www.w3.org/2000/svg" xmlns:xlink="http://www.w3.org/1999/xlink" x="0px" y="0px"
	 viewBox="0 0 300 300" style="enable-background:new 0 0 300 300;" xml:space="preserve">
<style type="text/css">
	.st0{fill:#45E0DC;}
</style>
<path class="st0" d="M150,20C78.3,20,20,78.3,20,150s58.3,130,130,130s130-58.3,130-130S221.7,20,150,20z M221.4,156.9l-70.9,70.9
	l-71.1-71.1c-8.9-8.9-13.8-20.8-13.8-33.3c0-12.6,4.9-24.4,13.7-33.4c8.9-8.9,20.8-13.8,33.3-13.8c12.6,0,24.5,4.9,33.4,13.9
	l2.8,2.7c0.6,0.6,1.2,0.7,1.7,0.7c0.4,0,1.1-0.1,1.7-0.7l2.7-2.7c8.9-8.9,20.8-13.8,33.4-13.8c12.6,0,24.4,4.9,33.3,13.9
	c8.9,8.9,13.8,20.7,13.8,33.3C235.3,136.2,230.3,148,221.4,156.9z"/>
</svg>
