<?xml version="1.0" encoding="utf-8"?>
<!-- Generator: Adobe Illustrator 19.1.0, SVG Export Plug-In . SVG Version: 6.00 Build 0)  -->
<svg version="1.1" id="Layer_1" xmlns="http://www.w3.org/2000/svg" xmlns:xlink="http://www.w3.org/1999/xlink" x="0px" y="0px"
	 viewBox="0 0 300 300" style="enable-background:new 0 0 300 300;" xml:space="preserve">
<style type="text/css">
	.st0{fill:#231F20;}
</style>
<path class="st0" d="M273.8,36H156v-9.8c0-3.4-2.6-6.2-6-6.2s-6,2.8-6,6.2V36H26.2c-3.4,0-6.2,3.1-6.2,6.5s2.8,6.5,6.2,6.5H28v148.9
	c0,7.8,6.4,14.1,14.2,14.1h47.6l-17.6,59.9c-1,3.3,0.9,6.8,4.2,7.8c0.6,0.2,1.2,0.3,1.8,0.3c2.7,0,5.2-1.9,6-4.5L95.7,236h108.6
	l11.6,39.5c0.8,2.6,3.2,4.5,6,4.5c0.6,0,1.2-0.1,1.8-0.2c1.6-0.5,2.9-1.5,3.7-3s1-3.2,0.5-4.8l-17.7-60h47.6
	c7.8,0,14.2-6.2,14.2-14.1V49h1.8c3.4,0,6.2-3.1,6.2-6.5S277.2,36,273.8,36z M99.4,224l3.4-12h94.5l3.4,12H99.4z M260,197.9
	c0,1-1.2,2.1-2.2,2.1H42.2c-1,0-1.2-1.1-1.2-2.1V49h219V197.9z"/>
<path class="st0" d="M236.5,72.5c-0.1,0-0.2-0.1-0.3-0.1s-0.2-0.1-0.3-0.1s-0.2-0.1-0.3-0.1s-0.2-0.1-0.3-0.1S235.1,72,235,72
	s-0.2,0-0.3-0.1c-0.1,0-0.2,0-0.3,0s-0.3,0-0.4,0h-36.1c-3.4,0-6.2,3.1-6.2,6.5s2.8,6.5,6.2,6.5h20.9l-63.6,63.2
	c-0.7,0.7-1.8,0.5-2.5-0.2l-24.6-24.7c-5.5-5.5-14.6-5.6-20.1,0l-46.3,46.2c-1.2,1.2-1.8,2.7-1.8,4.4s0.6,3.2,1.8,4.4
	s2.7,1.8,4.4,1.8s3.2-0.7,4.4-1.8l46.3-46.3c0.7-0.7,1.8-0.7,2.5,0l24.6,24.6c2.7,2.7,6.3,4.2,10.1,4.2s7.6-1.5,10.3-4.2L228,93.2
	v20.9c0,3.4,2.6,6.2,6,6.2s6-2.8,6-6.2V78.2c0-0.2,0-0.4,0-0.6c0-0.1,0-0.2,0-0.3c0-0.1,0-0.2,0-0.2c0-0.1,0-0.6-0.1-0.7v-0.3l0,0
	c0,0,0,0.2-0.1,0.1v0.1l-0.2-0.5c0-0.1-0.1-0.1-0.1-0.2l-0.2-0.4c0-0.1-0.1-0.1-0.1-0.2c-0.1-0.1-0.1-0.2-0.2-0.2
	c-0.1-0.1-0.1-0.2-0.2-0.3c-0.1-0.1-0.1-0.2-0.2-0.2c-0.3-0.3-0.5-0.6-0.9-0.9c-0.1-0.1-0.2-0.1-0.3-0.2s-0.1-0.1-0.2-0.1l-0.3-0.2
	c-0.1,0-0.1-0.1-0.2-0.1h-0.1C236.7,72.6,236.6,72.6,236.5,72.5L236.5,72.5z"/>
</svg>
