<?xml version="1.0" encoding="utf-8"?>
<!-- Generator: Adobe Illustrator 19.1.0, SVG Export Plug-In . SVG Version: 6.00 Build 0)  -->
<svg version="1.1" id="Layer_1" xmlns="http://www.w3.org/2000/svg" xmlns:xlink="http://www.w3.org/1999/xlink" x="0px" y="0px"
	 viewBox="0 0 300 300" style="enable-background:new 0 0 300 300;" xml:space="preserve">
<path d="M44.9,79.9l-24.6,52.6c-1.2,2.6,0.9,5.5,3.7,5.2l92.5-9.3c1.3-0.1,2.4-1,3-2.2l29.8-67L47.6,77.9
	C46.4,78.1,45.4,78.8,44.9,79.9L44.9,79.9z"/>
<path d="M149.2,59.2l31.5,69.1c0.6,1.2,1.7,2,3,2.1l92.3,7.4c2.8,0.2,4.8-2.6,3.6-5.2l-24.1-52.8c-0.5-1.1-1.5-1.9-2.7-2.1
	L149.2,59.2z"/>
<path d="M149.6,115v107.2l85.3-16.2v-52.2c0-2.2,1.9-3.9,4.1-3.6l10.5,1.6c1.8,0.2,3.2,1.8,3.2,3.6V216c0,1.7-1.2,3.2-2.9,3.6
	l-93.4,20.1c-4.5,1-9.2,1-13.7,0l-92.4-19.4c-1.7-0.3-2.9-1.8-2.9-3.5l-1.6-61.6c0-1.9,1.4-3.6,3.3-3.7l78.5-6.9
	c1.4-0.1,2.5-1,3.1-2.3l11.8-28.7C144.1,109.9,149.6,111,149.6,115L149.6,115z"/>
</svg>
