<?xml version="1.0" encoding="utf-8"?>
<!-- Generator: Adobe Illustrator 19.1.0, SVG Export Plug-In . SVG Version: 6.00 Build 0)  -->
<svg version="1.1" id="Layer_1" xmlns="http://www.w3.org/2000/svg" xmlns:xlink="http://www.w3.org/1999/xlink" x="0px" y="0px"
	 viewBox="0 0 300 300" style="enable-background:new 0 0 300 300;" xml:space="preserve">
<path d="M268.7,252.1l-60.2-62.7c15.5-18.4,24-41.6,24-65.7c0-56.4-45.9-102.2-102.2-102.2C73.9,21.5,28,67.3,28,123.7
	s45.9,102.2,102.2,102.2c21.2,0,41.3-6.4,58.6-18.5l60.7,63.2c2.5,2.6,5.9,4.1,9.6,4.1c3.5,0,6.7-1.3,9.2-3.7
	C273.7,265.8,273.8,257.4,268.7,252.1L268.7,252.1z M130.2,48.2c41.7,0,75.6,33.9,75.6,75.5c0,41.7-33.9,75.6-75.6,75.6
	c-41.6,0-75.5-33.9-75.5-75.6C54.7,82.1,88.6,48.2,130.2,48.2L130.2,48.2z"/>
</svg>
