<?xml version="1.0" encoding="utf-8"?>

<!DOCTYPE svg PUBLIC "-//W3C//DTD SVG 1.1//EN" "http://www.w3.org/Graphics/SVG/1.1/DTD/svg11.dtd">
<svg  class="block-displayed auto-margin" version="1.1" id="Layer_1" xmlns="http://www.w3.org/2000/svg" xmlns:xlink="http://www.w3.org/1999/xlink" x="0px" y="0px"
	 viewBox="-8.169 -8.169 100 100" enable-background="new -8.169 -8.169 100 100"
	 xml:space="preserve">
<path fill="#F07F75" d="M41.83,0C18.765,0,0,18.766,0,41.831s18.765,41.83,41.83,41.83s41.831-18.765,41.831-41.83S64.896,0,41.83,0
	 M53.198,21.713c3.52,0,6.372,2.853,6.372,6.373c0,3.519-2.854,6.372-6.372,6.372c-3.521,0-6.373-2.853-6.373-6.372
	C46.825,24.566,49.678,21.713,53.198,21.713 M29.299,21.713c3.52,0,6.373,2.853,6.373,6.373c0,3.519-2.853,6.372-6.373,6.372
	c-3.519,0-6.373-2.853-6.373-6.372C22.926,24.566,25.78,21.713,29.299,21.713 M59.23,64.519c-9.571-10.261-24.776-9.636-34.571,0
	c-2.253,2.217-5.721-1.251-3.468-3.468c11.635-11.444,30.116-12.209,41.507,0C64.851,63.358,61.389,66.831,59.23,64.519"/>
</svg>
