<?xml version="1.0" encoding="utf-8"?>

<!DOCTYPE svg PUBLIC "-//W3C//DTD SVG 1.1//EN" "http://www.w3.org/Graphics/SVG/1.1/DTD/svg11.dtd">
<svg class="block-displayed auto-margin" version="1.1" id="Layer_1" xmlns="http://www.w3.org/2000/svg" xmlns:xlink="http://www.w3.org/1999/xlink" x="0px" y="0px"
	 viewBox="-8.169 -8.169 100 100" enable-background="new -8.169 -8.169 100 100"
	 xml:space="preserve">
<path fill="#30DCF2" d="M41.831,0C18.765,0,0,18.765,0,41.831c0,23.066,18.765,41.831,41.831,41.831
	c23.064,0,41.831-18.765,41.831-41.831C83.662,18.765,64.896,0,41.831,0 M53.198,21.713c3.519,0,6.371,2.853,6.371,6.373
	c0,3.519-2.854,6.372-6.371,6.372c-3.521,0-6.373-2.853-6.373-6.372C46.825,24.566,49.679,21.713,53.198,21.713 M29.299,21.713
	c3.52,0,6.373,2.853,6.373,6.373c0,3.519-2.853,6.372-6.373,6.372s-6.373-2.853-6.373-6.372
	C22.926,24.566,25.779,21.713,29.299,21.713 M62.646,56.409c-11.635,11.443-30.116,12.208-41.505,0
	c-2.152-2.307,1.31-5.78,3.467-3.469c9.574,10.262,24.775,9.637,34.57,0C61.433,50.726,64.899,54.192,62.646,56.409"/>
</svg>
