<?xml version="1.0" encoding="utf-8"?>
 
<!DOCTYPE svg PUBLIC "-//W3C//DTD SVG 1.1//EN" "http://www.w3.org/Graphics/SVG/1.1/DTD/svg11.dtd">
<svg class="block-displayed auto-margin" version="1.1" id="Layer_1" xmlns="http://www.w3.org/2000/svg" xmlns:xlink="http://www.w3.org/1999/xlink" x="0px" y="0px"
	 viewBox="-8.169 -8.169 100 100" enable-background="new -8.169 -8.169 100 100"
	 xml:space="preserve">
<path fill="#8ECA77" d="M41.831,0C18.766,0,0,18.766,0,41.831c0,23.064,18.766,41.831,41.832,41.831
	c23.065,0,41.831-18.767,41.831-41.831C83.662,18.766,64.896,0,41.831,0 M61.336,29.011c0.062,1.934-2.938,1.926-3,0
	c-0.282-8.776-12.747-8.861-13.024,0c-0.061,1.929-3.061,1.931-3,0C42.71,16.296,60.929,16.379,61.336,29.011 M39.03,29.011
	c0.063,1.934-2.938,1.926-3,0c-0.282-8.776-12.746-8.861-13.024,0c-0.06,1.929-3.06,1.931-3,0
	C20.405,16.296,38.624,16.379,39.03,29.011 M41.517,67.565c-13.983,0-25.374-11.367-25.499-25.391h50.999
	C66.892,56.198,55.5,67.565,41.517,67.565"/>
</svg>
