<svg version="1.1" id="Layer_1" xmlns="http://www.w3.org/2000/svg" xmlns:xlink="http://www.w3.org/1999/xlink" x="0px" y="0px"
	 viewBox="0 0 100 100" style="enable-background:new 0 0 100 100;" xml:space="preserve">
 <style type="text/css">.st0{fill:#8393A0;}</style>
 <g>
  <title>background</title>
  <rect fill="none" id="canvas_background" height="102" width="102" y="-1" x="-1"/>
 </g>
 <g>
  <title>Layer 1</title>
  <path class="st0" stroke="null" id="svg_2" d="m49.999999,30.800288c5.399919,0 9.599857,-4.199937 9.599857,-9.599857c0,-5.399919 -4.199937,-9.599857 -9.599857,-9.599857c-5.399919,0 -9.599857,4.199937 -9.599857,9.599857c0,5.399919 4.199937,9.599857 9.599857,9.599857l0,0zm0,9.599857c-5.399919,0 -9.599857,4.199937 -9.599857,9.599857c0,5.399919 4.199937,9.599857 9.599857,9.599857c5.399919,0 9.599857,-4.199937 9.599857,-9.599857c0,-5.399919 -4.199937,-9.599857 -9.599857,-9.599857l0,0zm0,28.79957c-5.399919,0 -9.599857,4.199937 -9.599857,9.599857s4.199937,9.599857 9.599857,9.599857c5.399919,0 9.599857,-4.199937 9.599857,-9.599857s-4.199937,-9.599857 -9.599857,-9.599857l0,0zm0,0"/>
 </g>
</svg>