<svg version="1.1" id="Layer_1" xmlns="http://www.w3.org/2000/svg" xmlns:xlink="http://www.w3.org/1999/xlink" x="0px" y="0px"
	 viewBox="0 0 100 100" style="enable-background:new 0 0 100 100;" xml:space="preserve">
 <style type="text/css">.st0{clip-path:url(#SVGID_2_); fill:#8393A0;}</style>
 <g>
  <title>background</title>
  <rect fill="none" id="canvas_background" height="102" width="102" y="-1" x="-1"/>
 </g>
 <g>
  <title>Layer 1</title>
  <defs>
   <rect height="778" width="770.9" y="7" x="-80" id="SVGID_1_"/>
  </defs>
  <clipPath id="SVGID_2_">
   <use id="svg_3" xlink:href="#SVGID_1_"/>
  </clipPath>
  <path stroke="null" id="svg_4" d="m41.390083,48.013033c0.761793,0.826824 1.17056,1.904482 1.17056,3.019301l0,32.849998c0,1.978804 2.387571,2.982141 3.799675,1.588617l9.160096,-10.497878c1.226301,-1.467845 1.904482,-2.201767 1.904482,-3.660322l0,-20.271124c0,-1.114819 0.427347,-2.192477 1.17056,-3.019301l26.309727,-28.530075c1.969513,-2.136736 0.455218,-5.611255 -2.461892,-5.611255l-64.882462,0c-2.91711,0 -4.440695,3.465229 -2.461892,5.611255l26.291147,28.520785zm0,0" class="st0"/>
 </g>
</svg>