<?xml version="1.0" encoding="utf-8"?>
<!-- Generator: Adobe Illustrator 16.0.0, SVG Export Plug-In . SVG Version: 6.00 Build 0)  -->
<!DOCTYPE svg PUBLIC "-//W3C//DTD SVG 1.1//EN" "http://www.w3.org/Graphics/SVG/1.1/DTD/svg11.dtd">
<svg version="1.1" id="Layer_1" xmlns="http://www.w3.org/2000/svg" xmlns:xlink="http://www.w3.org/1999/xlink" x="0px" y="0px"
	 width="228.917px" height="64.5px" viewBox="0 0 228.917 64.5" enable-background="new 0 0 228.917 64.5" xml:space="preserve">
<g>
	<polygon fill="none" points="36.804,23.994 36.804,23.989 36.804,23.987 	"/>
	<g>
		<polygon fill="none" points="30.866,30.193 30.868,30.192 29.501,30.837 		"/>
		<polygon fill="none" points="59.297,20.765 59.297,20.755 59.297,20.753 		"/>
		<path fill="#005DAA" d="M29.581,34.823l-0.115,25.754v0.515c0.014,0.492,0.386,0.718,0.841,0.506l28.016-13.241
			c0.237-0.111,0.453-0.325,0.609-0.574L29.852,34.014C29.687,34.264,29.582,34.556,29.581,34.823z"/>
		
			<linearGradient id="SVGID_1_" gradientUnits="userSpaceOnUse" x1="588.5439" y1="537.8271" x2="588.5439" y2="510.511" gradientTransform="matrix(1 0 0 1 -541.9805 -504.1992)">
			<stop  offset="0" style="stop-color:#000000"/>
			<stop  offset="0.1014" style="stop-color:#00002F"/>
			<stop  offset="0.2203" style="stop-color:#001547"/>
			<stop  offset="0.3463" style="stop-color:#002559"/>
			<stop  offset="0.4794" style="stop-color:#003066"/>
			<stop  offset="0.6228" style="stop-color:#00376F"/>
			<stop  offset="0.784" style="stop-color:#003B75"/>
			<stop  offset="1" style="stop-color:#003C77"/>
		</linearGradient>
		<path fill="url(#SVGID_1_)" d="M58.455,19.418L35.765,8.71c-0.466-0.219-0.846,0.022-0.846,0.538l0.021,21.167
			c0,0.381-0.209,0.81-0.505,1.098c-0.103,0.099-0.218,0.181-0.338,0.239l0.338-0.16l24.598-11.646
			C58.881,19.716,58.677,19.523,58.455,19.418z"/>
		<path fill="#086DB6" d="M59.142,20.138c-0.033-0.067-0.069-0.13-0.11-0.192L34.434,31.591l-0.338,0.16
			c-0.001,0-0.003,0.001-0.003,0.001l-2.341,1.107l-1.319,0.624c-0.001,0.003-0.002,0.003-0.002,0.003
			c-0.22,0.103-0.42,0.294-0.571,0.517c-0.002,0.003-0.004,0.007-0.007,0.01l29.079,13.769l0,0c0.147-0.237,0.242-0.512,0.242-0.762
			l0.124-26.256v-0.01C59.297,20.553,59.241,20.337,59.142,20.138z"/>
		<path fill="#086DB6" d="M31.716,28.855L31.83,3.103l0.001-0.517c-0.014-0.493-0.387-0.721-0.842-0.505L2.975,15.323
			c-0.238,0.113-0.455,0.324-0.61,0.573l29.079,13.769C31.61,29.416,31.714,29.124,31.716,28.855z"/>
		
			<linearGradient id="SVGID_2_" gradientUnits="userSpaceOnUse" x1="556.7148" y1="532.2979" x2="556.7148" y2="566.1155" gradientTransform="matrix(1 0 0 1 -541.9805 -504.1992)">
			<stop  offset="0" style="stop-color:#000000"/>
			<stop  offset="0.1014" style="stop-color:#00002F"/>
			<stop  offset="0.2203" style="stop-color:#001547"/>
			<stop  offset="0.3463" style="stop-color:#002559"/>
			<stop  offset="0.4794" style="stop-color:#003066"/>
			<stop  offset="0.6228" style="stop-color:#00376F"/>
			<stop  offset="0.784" style="stop-color:#003B75"/>
			<stop  offset="1" style="stop-color:#003C77"/>
		</linearGradient>
		<path fill="url(#SVGID_2_)" d="M27.202,31.927l-0.339,0.161L2.267,43.732c0.15,0.229,0.353,0.422,0.575,0.526l22.69,10.709
			c0.467,0.219,0.847-0.021,0.847-0.538l-0.021-21.165c0-0.383,0.208-0.811,0.505-1.098C26.966,32.067,27.082,31.984,27.202,31.927z
			"/>
		<path fill="#005DAA" d="M2.365,15.896L2.365,15.896c-0.147,0.239-0.241,0.512-0.242,0.764L2,42.915v0.008
			c-0.001,0.204,0.058,0.418,0.155,0.618c0.033,0.064,0.07,0.13,0.111,0.191l24.596-11.646l0.339-0.16
			c0.001,0,0.002-0.001,0.003-0.002l2.297-1.087l1.366-0.647c0.219-0.104,0.419-0.293,0.571-0.517
			c0.002-0.003,0.003-0.006,0.005-0.01L2.365,15.896z"/>
		<g>
			<path fill="#005DAA" d="M84.568,38.118H74.007v3.503c0,1.218-0.656,1.826-1.968,1.826c-1.301,0-1.957-0.609-1.967-1.826
				l0.015-13.705c0-1.217,0.651-1.826,1.952-1.826l14.952-0.015c3.934,0.01,5.902,1.63,5.902,4.857v2.313
				c0,2.569-1.065,4.083-3.194,4.538l2.564,2.496c0.42,0.415,0.629,0.843,0.629,1.279c0,0.425-0.204,0.842-0.613,1.248
				c-0.452,0.438-0.929,0.655-1.432,0.655c-0.504,0-0.981-0.218-1.433-0.655L84.568,38.118z M88.959,33.245v-2.283
				c0-0.811-0.913-1.223-2.738-1.233l-12.213,0.016v4.72h12.197C88.041,34.465,88.959,34.059,88.959,33.245z"/>
			<path fill="#005DAA" d="M95.255,34.038c0-2.234,1.18-3.35,3.541-3.35h9.444c2.36,0,3.541,1.106,3.541,3.319v6.09
				c0,2.232-1.181,3.351-3.541,3.351h-9.428c-2.36,0-3.545-1.118-3.556-3.351V34.038L95.255,34.038z M107.846,35.529
				c-0.011-0.791-0.409-1.188-1.196-1.188h-6.296c-0.777,0-1.165,0.396-1.165,1.188v3.075c0,0.793,0.389,1.188,1.165,1.188h6.296
				c0.787,0,1.186-0.405,1.196-1.217V35.529z"/>
			<path fill="#005DAA" d="M114.142,43.447v-3.654h0.015V27.886c0-1.198,0.657-1.796,1.968-1.796s1.968,0.609,1.968,1.826
				l-0.016,2.741h7.492c3.4,0,5.1,1.625,5.1,4.872v3.075c0,3.229-1.706,4.843-5.115,4.843H114.142L114.142,43.447z M118.092,39.792
				h7.46c0.788,0,1.18-0.405,1.18-1.216v-3.047c0-0.813-0.383-1.218-1.148-1.218h-7.492V39.792L118.092,39.792z"/>
			<path fill="#005DAA" d="M133.028,43.447v-3.654h0.014V27.886c0-1.198,0.657-1.796,1.969-1.796c1.312,0,1.967,0.609,1.967,1.826
				l-0.016,2.741h7.492c3.401,0,5.1,1.625,5.1,4.872v3.075c0,3.229-1.706,4.843-5.115,4.843H133.028L133.028,43.447z
				 M136.979,39.792h7.459c0.787,0,1.181-0.405,1.181-1.216v-3.047c0-0.813-0.383-1.218-1.15-1.218h-7.49V39.792L136.979,39.792z"/>
			<path fill="#005DAA" d="M166.489,30.657c1.302,0,1.95,0.609,1.95,1.828v10.658c0,3.248-1.706,6.274-5.113,6.274h-6.297
				c-1.311,0-1.966-0.61-1.966-1.827c0-1.22,0.655-1.827,1.966-1.827h6.297c0.787,0,1.489-0.783,1.181-2.315h-7.491
				c-3.399,0-5.102-1.624-5.102-4.871v-6.091c0-1.218,0.658-1.827,1.971-1.827c1.31,0,1.965,0.608,1.965,1.827v6.091
				c0,0.812,0.386,1.217,1.149,1.217h7.49l0.018-7.308C164.507,31.266,165.167,30.657,166.489,30.657z"/>
			<path fill="#005DAA" d="M175.113,30.627l11.804,0.015c1.313,0,1.969,0.605,1.969,1.812c0,1.218-0.656,1.828-1.969,1.828h-11.771
				c-0.273,0.011-0.409,0.162-0.409,0.456c0,0.305,0.131,0.458,0.394,0.458h9.443c2.887,0.01,4.334,1.389,4.345,4.14
				c-0.011,2.741-1.458,4.112-4.345,4.112h-11.804c-1.313,0-1.967-0.609-1.967-1.827c0-1.219,0.654-1.828,1.967-1.828h11.804
				c0.263,0,0.394-0.151,0.394-0.457c0-0.325-0.131-0.487-0.394-0.487h-9.443c-2.887,0-4.327-1.37-4.327-4.11
				C170.802,31.997,172.239,30.627,175.113,30.627z"/>
			<path fill="#005DAA" d="M191.263,34.038c0-2.234,1.18-3.35,3.54-3.35h9.446c2.357,0,3.539,1.106,3.539,3.319v6.09
				c0,2.232-1.182,3.351-3.539,3.351h-9.429c-2.361,0-3.547-1.118-3.558-3.351V34.038z M203.853,35.529
				c-0.01-0.791-0.408-1.188-1.196-1.188h-6.294c-0.776,0-1.164,0.396-1.164,1.188v3.075c0,0.793,0.389,1.188,1.164,1.188h6.294
				c0.788,0,1.188-0.405,1.196-1.217V35.529z"/>
			<path fill="#005DAA" d="M210.148,30.657h11.395c3.409,0,5.12,1.625,5.131,4.872v6.092c0,1.218-0.657,1.826-1.967,1.826
				c-1.313,0-1.968-0.609-1.968-1.826l-0.016-6.092c0-0.811-0.389-1.217-1.165-1.217h-7.477v7.309c0,1.218-0.65,1.826-1.947,1.826
				c-1.313,0-1.969-0.61-1.969-1.826L210.148,30.657z"/>
		</g>
	</g>
	<polygon fill="none" points="36.804,32.318 36.804,32.312 36.804,32.312 	"/>
</g>
</svg>
