<?xml version="1.0" encoding="utf-8"?>
<!-- Generator: Adobe Illustrator 19.1.0, SVG Export Plug-In . SVG Version: 6.00 Build 0)  -->
<svg version="1.1" id="Layer_1" xmlns="http://www.w3.org/2000/svg" xmlns:xlink="http://www.w3.org/1999/xlink" x="0px" y="0px"
	 viewBox="-185 33 300 300" style="enable-background:new -185 33 300 300;" xml:space="preserve">
<style type="text/css">
	.st0{fill:#086DB6;}
</style>
<path class="st0" d="M-50,183.4C-50,183.4-50,183.4-50,183.4l10-4.7l6-2.8c1-0.5,1.8-1.3,2.5-2.3c0,0,0,0,0,0l0,0
	c0.7-1.1,1.2-2.4,1.2-3.5l0.5-112.2l0-2.3c-0.1-2.1-1.7-3.1-3.7-2.2l-122,57.7c-1,0.5-2,1.4-2.7,2.5c-0.6,1-1,2.2-1.1,3.3
	l-0.5,114.4v0c0,0.9,0.3,1.8,0.7,2.7c0.1,0.3,0.3,0.6,0.5,0.8l0.2-0.1c0,0,0,0,0,0l-0.2,0.1c0.7,1,1.5,1.8,2.5,2.3l98.9,46.7
	c2,1,3.7-0.1,3.7-2.3l-0.1-92.2c0-1.7,0.9-3.5,2.2-4.8C-51,184-50.5,183.6-50,183.4l-1.1,0.5c0,0,0,0,0,0L-50,183.4z"/>
<path class="st0" d="M89.1,132c-0.1-0.3-0.3-0.6-0.5-0.8l0,0c-0.7-1-1.6-1.8-2.5-2.3l-98.9-46.7c-2-1-3.7,0.1-3.7,2.3l0.1,92.2
	c0,1.7-0.9,3.5-2.2,4.8c-0.4,0.4-0.9,0.8-1.4,1l0,0c0,0,0,0,0,0l-10.2,4.8l-5.7,2.7c0,0,0,0,0,0c-1,0.4-1.8,1.3-2.5,2.3c0,0,0,0,0,0
	l0.2,0.1c0,0,0,0,0,0l-0.2-0.1c-0.7,1.1-1.2,2.4-1.2,3.5l-0.5,112.2v2.2c0.1,2.1,1.7,3.1,3.7,2.2L85.6,255c1-0.5,2-1.4,2.7-2.5
	l-0.1-0.1c0,0,0,0,0,0l0.1,0.1c0.6-1,1.1-2.2,1.1-3.3l0.5-114.4v0C89.8,133.8,89.6,132.9,89.1,132z"/>
</svg>
