<?xml version="1.0" encoding="utf-8"?>
<!-- Generator: Adobe Illustrator 19.1.0, SVG Export Plug-In . SVG Version: 6.00 Build 0)  -->
<svg version="1.1" id="Layer_1" xmlns="http://www.w3.org/2000/svg" xmlns:xlink="http://www.w3.org/1999/xlink" x="0px" y="0px"
	 viewBox="0 0 100 100" style="enable-background:new 0 0 100 100;" xml:space="preserve">
<style type="text/css">
	.st0{fill:#8393A0;}
</style>
<path class="st0" d="M61.9,45.5c-0.3,0-0.5,0-0.8,0c-2.4-4.3-7-6.9-11.9-6.9c-6.1,0-11.3,3.8-13.1,9.6c-4.7,0.3-8.4,4.2-8.4,8.9
	c0,4.9,4,8.9,9,8.9h25.2c5.7,0,10.3-4.6,10.3-10.2S67.6,45.5,61.9,45.5z M69.9,55.9c0,4.4-3.6,8.1-8,8.1H36.7
	c-3.7,0-6.6-3.1-6.6-6.8c0-3.7,3-6.7,6.8-6.7l0.2,0c0.5,0,1-0.4,1.1-0.9c1.3-5.1,5.8-8.7,11.1-8.7c4.4,0,8.3,2.4,10.2,6.4
	c0.2,0.5,0.8,0.8,1.3,0.7C65.7,47.3,69.9,51.1,69.9,55.9z"/>
</svg>
