<?xml version="1.0" encoding="utf-8"?>
<!-- Generator: Adobe Illustrator 19.1.0, SVG Export Plug-In . SVG Version: 6.00 Build 0)  -->
<svg version="1.1" id="Layer_1" xmlns="http://www.w3.org/2000/svg" xmlns:xlink="http://www.w3.org/1999/xlink" x="0px" y="0px"
	 viewBox="0 0 100 100" style="enable-background:new 0 0 100 100;" xml:space="preserve">
<style type="text/css">
	.st0{fill:#8393A0;}
</style>
<g>
	<g>
		<defs>
			<rect id="SVGID_1_" x="26.3" y="35.2" width="45.2" height="25.6"/>
		</defs>
		<clipPath id="SVGID_2_">
			<use xlink:href="#SVGID_1_"  style="overflow:visible;"/>
		</clipPath>
	</g>
	<path class="st0" d="M55.2,53.1l-1-5.8l4.2-4.1c0.2-0.2,0.3-0.6,0.2-0.9c-0.1-0.3-0.4-0.6-0.7-0.6l-5.8-0.8l-2.6-5.2c-0.1-0.3-0.5-0.5-0.8-0.5
		c-0.3,0-0.6,0.2-0.8,0.5l-2.6,5.2l-5.8,0.8c-0.3,0-0.6,0.3-0.7,0.6c-0.1,0.3,0,0.7,0.2,0.9l4.2,4.1l-1,5.8
		c-0.1,0.3,0.1,0.7,0.4,0.9c0.3,0.2,0.6,0.2,0.9,0.1l5.2-2.7L54,54c0.1,0.1,0.3,0.1,0.4,0.1c0.2,0,0.4-0.1,0.5-0.2
		C55.2,53.8,55.3,53.4,55.2,53.1L55.2,53.1z M52.4,47.2l0.8,4.4l-4-2.1c-0.1-0.1-0.3-0.1-0.4-0.1c-0.1,0-0.3,0-0.4,0.1l-4,2.1
		l0.8-4.4c0-0.3,0-0.6-0.3-0.8l-3.2-3.1l4.5-0.6c0.3,0,0.5-0.2,0.7-0.5l2-4l2,4c0.1,0.3,0.4,0.4,0.7,0.5l4.5,0.6l-3.2,3.1
		C52.5,46.6,52.4,46.9,52.4,47.2L52.4,47.2z M52.4,47.2"/>
	<path class="st0" d="M50.8,58.8H38.5c-0.5,0-0.9,0.4-0.9,0.9c0,0.5,0.4,0.9,0.9,0.9h12.3c0.5,0,0.9-0.4,0.9-0.9C51.7,59.2,51.3,58.8,50.8,58.8
		L50.8,58.8z M50.8,58.8"/>
	<path class="st0" d="M59.2,58.8h-3.8c-0.5,0-0.9,0.4-0.9,0.9c0,0.5,0.4,0.9,0.9,0.9h3.8c0.5,0,0.9-0.4,0.9-0.9C60.1,59.2,59.7,58.8,59.2,58.8
		L59.2,58.8z M59.2,58.8"/>
</g>
<path class="st0" d="M71.4,48.8c-0.1-0.3-0.4-0.6-0.7-0.6l-3.8-0.5l-1.7-3.4c-0.1-0.3-0.5-0.5-0.8-0.5c-0.3,0-0.6,0.2-0.8,0.5L62,47.6l-3.8,0.5
	c-0.3,0-0.6,0.3-0.7,0.6c-0.1,0.3,0,0.7,0.2,0.9l2.7,2.7l-0.6,3.7c-0.1,0.3,0.1,0.7,0.4,0.9c0.3,0.2,0.6,0.2,0.9,0.1l3.4-1.8
	l3.4,1.8c0.1,0.1,0.3,0.1,0.4,0.1c0.2,0,0.4-0.1,0.5-0.2c0.3-0.2,0.4-0.5,0.4-0.9l-0.6-3.7l2.7-2.7C71.4,49.4,71.5,49.1,71.4,48.8
	L71.4,48.8z M66.9,51.4c-0.2,0.2-0.3,0.5-0.3,0.8l0.4,2.4l-2.2-1.2c-0.1-0.1-0.3-0.1-0.4-0.1c-0.1,0-0.3,0-0.4,0.1l-2.2,1.2l0.4-2.4
	c0-0.3,0-0.6-0.3-0.8l-1.8-1.7l2.5-0.4c0.3,0,0.5-0.2,0.7-0.5l1.1-2.2l1.1,2.2c0.1,0.3,0.4,0.4,0.7,0.5l2.5,0.4L66.9,51.4z
	 M66.9,51.4"/>
<path class="st0" d="M37.9,56.1l-0.6-3.7l2.7-2.7c0.2-0.2,0.3-0.6,0.2-0.9c-0.1-0.3-0.4-0.6-0.7-0.6l-3.8-0.5l-1.7-3.4c-0.1-0.3-0.5-0.5-0.8-0.5
	c-0.3,0-0.6,0.2-0.8,0.5l-1.7,3.4L27,48.2c-0.3,0-0.6,0.3-0.7,0.6c-0.1,0.3,0,0.7,0.2,0.9l2.7,2.7l-0.6,3.7
	c-0.1,0.3,0.1,0.7,0.4,0.9c0.2,0.1,0.3,0.2,0.5,0.2c0.1,0,0.3,0,0.4-0.1l3.4-1.8l3.4,1.8c0.3,0.2,0.7,0.1,0.9-0.1
	C37.8,56.7,38,56.4,37.9,56.1L37.9,56.1z M35.7,51.4c-0.2,0.2-0.3,0.5-0.3,0.8l0.4,2.4l-2.2-1.2c-0.3-0.1-0.6-0.1-0.8,0l-2.2,1.2
	l0.4-2.4c0-0.3,0-0.6-0.3-0.8l-1.8-1.7l2.5-0.4c0.3,0,0.5-0.2,0.7-0.5l1.1-2.2l1.1,2.2c0.1,0.3,0.4,0.4,0.7,0.5l2.5,0.4L35.7,51.4z
	 M35.7,51.4"/>
</svg>
