<?xml version="1.0" encoding="utf-8"?>
<!-- Generator: Adobe Illustrator 19.1.0, SVG Export Plug-In . SVG Version: 6.00 Build 0)  -->
<svg version="1.1" id="Layer_1" xmlns="http://www.w3.org/2000/svg" xmlns:xlink="http://www.w3.org/1999/xlink" x="0px" y="0px"
	 viewBox="0 0 100 100" style="enable-background:new 0 0 100 100;" xml:space="preserve">
<style type="text/css">
	.st0{fill:#8393A0;}
</style>
<path class="st0" d="M65.6,56c-0.4-0.7-1-2-1.5-2.9l-0.8-1.5c-0.5-0.8-1.2-1.4-2-1.4s-1.5,0.4-2,1.3c0,0.1-0.1,0.1-0.1,0.2l-6-9.8
	c-0.6-1-1.5-1-2.4-1c0,0,0,0,0,0c-1,0-1.8-0.1-2.4,1L45,47.3c-0.2-0.4,0-0.9,0-0.9c-0.6-1-1-1.8-2-1.8v0c-1,0-2.2,1.1-2.8,2.2
	L32.4,60h35.1L65.6,56z M35.9,58l5.6-10.2c0.2-0.4,0.5-0.9,0.7-0.9c0.2,0,0.5,0.1,0.7,0.5c0,0,1.1,1.9,1.3,2.1l0.9,1.4l5.1-8.6
	c0.2-0.4,0.8-0.6,0.8-0.6v0c0,0,0.3,0.2,0.6,0.6l7.7,13.4l1.1-1.9c0.3-0.5,0.5-0.9,0.7-1.3c0.1-0.2,0.2-0.3,0.2-0.3
	c0,0,0.1,0.1,0.3,0.3l0.8,1.3c0.5,0.9,1.1,2.4,1.5,3.1l0.3,1H35.9z"/>
</svg>
